<?xml version="1.0" standalone="no"?>
<!DOCTYPE svg PUBLIC "-//W3C//DTD SVG 1.1//EN"
  "http://www.w3.org/Graphics/SVG/1.1/DTD/svg11.dtd">
<svg width="302mm" height="302mm" viewBox="-158 -162 302 302" xmlns="http://www.w3.org/2000/svg" version="1.1">
	<title>svgOutput</title>
	<desc>made with tinkercad</desc>
<path d="M -157 139 L -157 -161 L -149.0030059814453 -161 L -142.0030059814453 -161 L -142.0019989013672 -161 L -141.9980010986328 -161 L -84 -161 L -74 -161 L -38 -161 L -28 -161 L 11.998000144958496 -161 L 15.001999855041504 -161 L 15.003000259399414 -161 L 19.003000259399414 -161 L 39.99800109863281 -161 L 47.99800109863281 -161 L 85.74800109863281 -161 L 92.25299835205078 -161 L 132.0030059814453 -161 L 143 -161 L 143 48.00299835205078 L 143 139 L 140.0030059814453 139 L 92.25299835205078 139 L 85.74800109863281 139 L 47.99800109863281 139 L 39.99800109863281 139 L 19.003000259399414 139 L 15.003000259399414 139 L 11.996999740600586 139 L -28 139 L -38 139 L -74 139 L -84 139 L -141.9980010986328 139 L -142.0019989013672 139 L -142.0030059814453 139 L -149.0030059814453 139 L -157 139 M 125 86.58326721191406 L 125 85.85688018798828 L 125 60.99800109863281 L 92.25299835205078 60.99800109863281 L 85.74800109863281 60.99800109863281 L 55 60.99800109863281 L 55 80.61699676513672 L 55 84.62081146240234 L 53.83300018310547 86.91100311279297 L 51.99800109863281 98.5 L 53.83300018310547 110.08899688720703 L 55 112.37918853759766 L 55 117.459228515625 L 55 131.07200622558594 L 55 136.0030059814453 L 85.74800109863281 136.0030059814453 L 92.25299835205078 136.0030059814453 L 125 136.0030059814453 L 125 131.07200622558594 L 125 121.98277282714844 L 125 115.38300323486328 L 125 110.41673278808594 L 125.16699981689453 110.08899688720703 L 127.00299835205078 98.5 L 125.16699981689453 86.91100311279297 L 125 86.58326721191406 M 11.998000144958496 -135.0019989013672 L -28 -135.0019989013672 L -38 -135.0019989013672 L -74 -135.0019989013672 L -84 -135.0019989013672 L -141.9980010986328 -135.0019989013672 L -141.9980010986328 -135.0030059814453 L -142.0019989013672 -135.0030059814453 L -142.0030059814453 -135.0030059814453 L -149.0030059814453 -135.0030059814453 L -149.0030059814453 -27.996999740600586 L -142.0030059814453 -27.996999740600586 L -142.0019989013672 -27.996999740600586 L -141.9980010986328 -27.996999740600586 L -94.00299835205078 -27.996999740600586 L -84 -27.996999740600586 L -74 -27.996999740600586 L -38 -27.996999740600586 L -28 -27.996999740600586 L -17.996999740600586 -27.996999740600586 L 11.996999740600586 -27.996999740600586 L 11.998000144958496 -27.996999740600586 L 15.001999855041504 -27.996999740600586 L 15.003000259399414 -27.996999740600586 L 19.003000259399414 -27.996999740600586 L 19.003000259399414 -135.0030059814453 L 15.003000259399414 -135.0030059814453 L 15.001999855041504 -135.0030059814453 L 11.998000144958496 -135.0030059814453 L 11.998000144958496 -135.0019989013672 M -141.9980010986328 110.00199890136719 L -84 110.00199890136719 L -74 110.00199890136719 L -38 110.00199890136719 L -28 110.00199890136719 L 11.996999740600586 110.00199890136719 L 11.996999740600586 110.00299835205078 L 15.003000259399414 110.00299835205078 L 19.003000259399414 110.00299835205078 L 19.003000259399414 2.996999979019165 L 15.003000259399414 2.996999979019165 L 15.001999855041504 2.996999979019165 L 11.998000144958496 2.996999979019165 L 11.996999740600586 2.996999979019165 L 11.996999740600586 2.997999906539917 L -17.996999740600586 2.997999906539917 L -28 2.997999906539917 L -38 2.997999906539917 L -74 2.997999906539917 L -84 2.997999906539917 L -94.00299835205078 2.997999906539917 L -141.9980010986328 2.997999906539917 L -141.9980010986328 2.996999979019165 L -142.0019989013672 2.996999979019165 L -142.0030059814453 2.996999979019165 L -149.0030059814453 2.996999979019165 L -149.0030059814453 110.00299835205078 L -142.0030059814453 110.00299835205078 L -142.0019989013672 110.00299835205078 L -141.9980010986328 110.00299835205078 L -141.9980010986328 110.00199890136719 M -94.00299835205078 -4.997000217437744 L -84 -4.997000217437744 L -84 -21.003000259399414 L -94.00299835205078 -21.003000259399414 L -94.00299835205078 -4.997000217437744 M -17.996999740600586 -21.003000259399414 L -28 -21.003000259399414 L -28 -4.997000217437744 L -17.996999740600586 -4.997000217437744 L -17.996999740600586 -21.003000259399414 M 46 60.99800109863281 L 39.99800109863281 60.99800109863281 L 39.99800109863281 136.0030059814453 L 46 136.0030059814453 L 46 60.99800109863281 M 65.31199645996094 -27.981000900268555 L 56.01900100708008 -18.687999725341797 L 54 -14.72546672821045 L 54 1.1102230246251565e-16 L 54 26.725467681884766 L 56.01900100708008 30.687999725341797 L 65.31199645996094 39.98099899291992 L 69.2745361328125 42 L 85.74800109863281 42 L 92.25299835205078 42 L 110.7254638671875 42 L 114.68800354003906 39.98099899291992 L 123.98100280761719 30.687999725341797 L 126 26.725467681884766 L 126 1.1102230246251565e-16 L 126 -14.72546672821045 L 123.98100280761719 -18.687999725341797 L 114.68800354003906 -27.981000900268555 L 110.7254638671875 -30 L 92.25299835205078 -30 L 85.74800109863281 -30 L 69.2745361328125 -30 L 65.31199645996094 -27.981000900268555 M -74 -4.997000217437744 L -38 -4.997000217437744 L -38 -21.003000259399414 L -74 -21.003000259399414 L -74 -4.997000217437744 M 92.25299835205078 -57.50299835205078 L 85.74800109863281 -57.50299835205078 L 85.74800109863281 -50.99800109863281 L 92.25299835205078 -50.99800109863281 L 92.25299835205078 -57.50299835205078 M 134 60.99800109863281 L 134 136.0030059814453 L 140.0030059814453 136.0030059814453 L 140.0030059814453 60.99800109863281 L 134 60.99800109863281 z" fill="none" stroke="rgb(255,0,0)" stroke-width="0.001mm" />
</svg>