<?xml version="1.0" standalone="no"?>
<!DOCTYPE svg PUBLIC "-//W3C//DTD SVG 1.1//EN"
  "http://www.w3.org/Graphics/SVG/1.1/DTD/svg11.dtd">
<svg width="302mm" height="302mm" viewBox="-146 -196 302 302" xmlns="http://www.w3.org/2000/svg" version="1.1">
	<title>svgOutput</title>
	<desc>made with tinkercad</desc>
<path d="M 155 105 L 152.0030059814453 105 L 104.25299835205078 105 L 97.74800109863281 105 L 59.99800109863281 105 L 51.99800109863281 105 L 27.003000259399414 105 L -130.0019989013672 105 L -130.0030059814453 105 L -145 105 L -145 -195 L -130.0030059814453 -195 L -130.0019989013672 -195 L 27.00200080871582 -195 L 27.003000259399414 -195 L 51.99800109863281 -195 L 59.99800109863281 -195 L 97.74800109863281 -195 L 104.25299835205078 -195 L 144.0030059814453 -195 L 155 -195 L 155 14.001999855041504 L 155 105 M 141.94700622558594 -15.020999908447266 L 144.0030059814453 -28 L 141.94700622558594 -40.979000091552734 L 135.9810028076172 -52.6879997253418 L 131.07200622558594 -57.59700012207031 L 126.68800354003906 -61.98099899291992 L 114.97899627685547 -67.9469985961914 L 104.25299835205078 -69.64527893066406 L 102 -70.00199890136719 L 97.74800109863281 -69.32876586914062 L 89.02100372314453 -67.9469985961914 L 77.31199645996094 -61.98099899291992 L 68.01899719238281 -52.6879997253418 L 62.053001403808594 -40.979000091552734 L 59.99800109863281 -28 L 62.053001403808594 -15.020999908447266 L 68.01899719238281 -3.312000036239624 L 77.31199645996094 5.980999946594238 L 89.02100372314453 11.946999549865723 L 97.74800109863281 13.32876968383789 L 102 14.001999855041504 L 104.25299835205078 13.645276069641113 L 114.97899627685547 11.946999549865723 L 126.68800354003906 5.980999946594238 L 131.07200622558594 1.597000002861023 L 135.9810028076172 -3.312000036239624 L 141.94700622558594 -15.020999908447266 M 27.00200080871582 -165.0030059814453 L -130.0019989013672 -165.0030059814453 L -130.0030059814453 -165.0030059814453 L -130.0030059814453 -69.99700164794922 L -130.0019989013672 -69.99700164794922 L 27.00200080871582 -69.99700164794922 L 27.00200080871582 -165.0030059814453 M 59.99800109863281 102.00299835205078 L 97.74800109863281 102.00299835205078 L 104.25299835205078 102.00299835205078 L 152.0030059814453 102.00299835205078 L 152.0030059814453 26.99799919128418 L 104.25299835205078 26.99799919128418 L 97.74800109863281 26.99799919128418 L 59.99800109863281 26.99799919128418 L 51.99800109863281 26.99799919128418 L 51.99800109863281 102.00299835205078 L 59.99800109863281 102.00299835205078 M 104.25299835205078 -91.50299835205078 L 97.74800109863281 -91.50299835205078 L 97.74800109863281 -84.99800109863281 L 104.25299835205078 -84.99800109863281 L 104.25299835205078 -91.50299835205078 M 27.00200080871582 -27.00200080871582 L -130.0019989013672 -27.00200080871582 L -130.0019989013672 68.00299835205078 L 27.003000259399414 68.00299835205078 L 27.003000259399414 -27.00200080871582 L 27.00200080871582 -27.00200080871582 z" fill="none" stroke="rgb(255,0,0)" stroke-width="0.001mm" />
</svg>